<svg xmlns="http://www.w3.org/2000/svg" viewBox="0 0 527.11 199.76"><defs><style>.cls-1,.cls-13,.cls-16{fill:#1d1d1b;}.cls-2{fill:#b6c5ba;}.cls-14,.cls-3{fill:#47464b;}.cls-4{fill:#717783;}.cls-5{fill:#8c939d;}.cls-6{fill:#9ba8a1;}.cls-7{fill:#d07f23;}.cls-8{fill:#af2f22;}.cls-10,.cls-12,.cls-20,.cls-9{fill:none;}.cls-10,.cls-12,.cls-13,.cls-14,.cls-15,.cls-17,.cls-18,.cls-19,.cls-20,.cls-9{stroke:#1d1d1b;}.cls-10,.cls-12,.cls-13,.cls-14,.cls-15,.cls-16,.cls-17,.cls-18,.cls-19,.cls-9{stroke-miterlimit:10;}.cls-9{stroke-width:4px;}.cls-10,.cls-13,.cls-14,.cls-15{stroke-width:2px;}.cls-11{fill:#626365;}.cls-12,.cls-17,.cls-18,.cls-19,.cls-20{stroke-width:3px;}.cls-15{fill:#b7c5ba;}.cls-16{stroke:#3a3938;}.cls-17{fill:#575756;}.cls-18,.cls-19{fill:#dadada;}.cls-19,.cls-20{stroke-linecap:round;}.cls-20{stroke-linejoin:round;}</style></defs><g id="Layer_2" data-name="Layer 2"><g id="Outline"><polyline class="cls-1" points="471.67 158.5 407.07 152.25 374.76 163.46 372.98 89.67 471.67 109.59 471.67 158.5"/><polyline class="cls-1" points="138.58 162.63 94.28 150.94 36.25 155.51 37.76 97.59 150.72 103.59 138.58 162.63"/><path class="cls-2" d="M513.85,96.18V124a21.43,21.43,0,0,1-3.51,11.84c-4.44,6.69-13.59,17-30.28,23.1a17.31,17.31,0,0,1-5.88,1h-1.11a1.39,1.39,0,0,1-1.4-1.44c.32-8.63-3.87-47.47-45.47-50.73-49.7,0-50.87,52.17-50.87,52.17v3a.57.57,0,0,1-.57.56H139.44a.85.85,0,0,1-.86-.83c-.11-7.09-2.68-56.69-52.82-56.69-46.19,0-48.86,37.22-48.67,48a1.85,1.85,0,0,1-2.74,1.65c-6.74-3.82-23.13-18.7-25.82-73.66A13.77,13.77,0,0,1,13,71.07c23-21,59.33-51.32,72.49-62.24A19.53,19.53,0,0,1,96.93,4.37C119.61,3.22,198.75-.14,284.29,4a32.74,32.74,0,0,1,22,10.05c15.43,16.06,35.07,35.7,44.25,44.85a20.74,20.74,0,0,0,12.35,5.91c23.29,2.55,98,11.28,144.54,23.14A8.44,8.44,0,0,1,513.85,96.18Z"/><path class="cls-3" d="M498.5,148.68s-4.48,7.36,2,16a2.4,2.4,0,0,1-.35,3.22l-.33.29a2.39,2.39,0,0,1-3,.19c-3.3-2.28-11.75-7.3-22.17-7.3C473.07,159.94,490.26,156.71,498.5,148.68Z"/><path class="cls-4" d="M336.43,61.89,295,20.88A10.07,10.07,0,0,0,288.06,18L207.8,16.78a3.86,3.86,0,0,0-3.9,4l1.71,43.11a3.85,3.85,0,0,0,3.85,3.69H334.09A3.33,3.33,0,0,0,336.43,61.89Z"/><path class="cls-4" d="M182.53,15l-60.74,1.62a13.79,13.79,0,0,0-9.4,4L85.77,47.26C78.84,54.18,84.2,67,94,67l92.33.64c2.71,0,4.38-4.64,4.17-7.35l-3.18-40.91A4.67,4.67,0,0,0,182.53,15Z"/><path class="cls-5" d="M319,67l3.32-7.08L294.92,34.57a19.92,19.92,0,0,0-13.07-5.31l-78.11-1.9L206,67.59Z"/><path class="cls-5" d="M186.72,65.38l-2.57-32.6a5.8,5.8,0,0,0-5.87-5.33l-51.42.92A13.63,13.63,0,0,0,118,31.88L97.3,50.62a13.59,13.59,0,0,0-4,13.42L94,67"/><path class="cls-6" d="M515.25,96.19,7.66,91.46S16.32,148,35.58,155.77C37.23,148.84,42,129.3,42,129.3l5.77-8.55L63,109.89l14.31-3.33,21.07.56,16.82,6.69,12.6,12.48,6.28,12.41,3.31,17.07,1.23,7.69H373l2.35-2.67,3.09-17.69,5.45-13.38,4.75-5.87,8.05-7.49,8.74-4.82,14.43-3.47,11.64-.3L443,111.62l11.41,6.92,9.65,11.57,5.43,13,2,10.55.82,6.06,8.94-1,12.32-6.51,11.52-9.72,8.77-13.94V100.07Z"/><path class="cls-4" d="M287.93,27.36c.14,1.76,5.35,39.79,5.35,39.79L290.61,67l-5.28-39.66Z"/><path class="cls-4" d="M217,67s-3.74-14.41-8.47-14.34c2.88-.6,6.69-4.2,5.53-11.56-1.29-8.19-5.21-8-7.62-7.92s-1.29,34.41-1.29,34.41Z"/><polygon class="cls-7" points="9.78 100.84 16.24 100.84 16.24 91.77 9.16 91.7 9.78 100.84"/><polygon class="cls-8" points="16.24 100.59 9.78 100.59 12.39 111.68 14.52 112.53 16.24 110.96 16.24 100.59"/><polygon class="cls-6" points="16.89 90.68 17.44 68.64 9.16 77.64 9.16 91.45 16.89 90.68"/><path class="cls-9" d="M513.85,96.18V124a21.43,21.43,0,0,1-3.51,11.84c-4.44,6.69-13.59,17-30.28,23.1a17.31,17.31,0,0,1-5.88,1h-1.11a1.39,1.39,0,0,1-1.4-1.44c.32-8.63-3.87-47.47-45.47-50.73-49.7,0-50.87,52.17-50.87,52.17v3a.57.57,0,0,1-.57.56H139.44a.85.85,0,0,1-.86-.83c-.11-7.09-2.68-56.69-52.82-56.69-46.19,0-48.86,37.22-48.67,48a1.85,1.85,0,0,1-2.74,1.65c-6.74-3.82-23.13-18.7-25.82-73.66A13.77,13.77,0,0,1,13,71.07c23-21,59.33-51.32,72.49-62.24A19.53,19.53,0,0,1,96.93,4.37C119.61,3.22,198.75-.14,284.29,4a32.74,32.74,0,0,1,22,10.05c15.43,16.06,35.07,35.7,44.25,44.85a20.74,20.74,0,0,0,12.35,5.91c23.29,2.55,98,11.28,144.54,23.14A8.44,8.44,0,0,1,513.85,96.18Z"/><path class="cls-10" d="M12,112.59h1.86a3,3,0,0,0,3-3V76.88A3.18,3.18,0,0,1,18,74.47c6.42-5.52,39.78-34.22,70.66-60a13.44,13.44,0,0,1,7.76-3.11c71.4-4.67,169.08-1,193.17.05A14.31,14.31,0,0,1,299,15.51l53.7,53A6.1,6.1,0,0,1,354.5,72c1.32,9.37,6.2,48.8-.3,78.93v12.52"/><polyline class="cls-10" points="198.85 150.94 198.85 135.68 198.85 92.64 198.85 69.16 194.15 9.03"/><path class="cls-3" d="M522.2,120.81H457.89s8.23,8,10,17.29c4-.06,25,0,35.6,0A36.5,36.5,0,0,0,517,135.55l5.45-2.16a5.08,5.08,0,0,0,3.21-4.74V124.2A3.41,3.41,0,0,0,522.2,120.81Z"/><path class="cls-3" d="M384.55,128.59H129.22a38,38,0,0,1,5.36,11.6c5.44-.07,244.68,0,244.68,0S382,132.51,384.55,128.59Z"/><path class="cls-3" d="M44.66,124.89H4a2.52,2.52,0,0,0-2.53,2.52v3.91a10.88,10.88,0,0,0,11,10.88l25.6-.3"/><polygon class="cls-11" points="2.31 128.59 42.31 128.59 43.26 124.89 2.31 125.57 2.31 128.59"/><polygon class="cls-11" points="461.5 123.84 524.7 123.84 523.33 120.81 460.13 121.3 461.5 123.84"/><polyline class="cls-10" points="16.89 91.53 9.16 91.45 513.85 96.19"/><path class="cls-12" d="M522.2,120.81H457.89s8.23,8,10,17.29c4-.06,25,0,35.6,0A36.5,36.5,0,0,0,517,135.55l5.45-2.16a5.08,5.08,0,0,0,3.21-4.74V124.2A3.41,3.41,0,0,0,522.2,120.81Z"/><path class="cls-10" d="M384.55,128.59H129.22a38,38,0,0,1,5.36,11.6c5.44-.07,244.68,0,244.68,0S382,132.51,384.55,128.59Z"/><line class="cls-13" x1="137.36" y1="150.94" x2="376.44" y2="150.94"/><rect class="cls-14" x="203.74" y="75.03" width="10.76" height="11.22" rx="3.03"/><path class="cls-15" d="M233.28,80.42v1.35c0,.6-.81,1.09-1.81,1.09H210.93c-1,0-1.81-.49-1.81-1.09V80.42c0-.6.81-1.09,1.81-1.09h20.54C232.47,79.33,233.28,79.82,233.28,80.42Z"/><path class="cls-9" d="M336.43,61.89,295,20.88A10.07,10.07,0,0,0,288.06,18L207.8,16.78a3.86,3.86,0,0,0-3.9,4l1.71,43.11a3.85,3.85,0,0,0,3.85,3.69H334.09A3.33,3.33,0,0,0,336.43,61.89Z"/><line class="cls-10" x1="297.33" y1="67.59" x2="292.5" y2="19.08"/><path class="cls-9" d="M182.53,15l-60.74,1.62a13.79,13.79,0,0,0-9.4,4L85.77,47.26C78.84,54.18,84.2,67,94,67l92.33.64c2.71,0,4.38-4.64,4.17-7.35l-3.18-40.91A4.67,4.67,0,0,0,182.53,15Z"/><path class="cls-12" d="M44.66,124.89H4a2.52,2.52,0,0,0-2.53,2.52v3.91a10.88,10.88,0,0,0,11,10.88l25.6-.3S39.73,131.07,44.66,124.89Z"/><circle class="cls-13" cx="49.76" cy="75.81" r="4.36"/><circle class="cls-16" cx="49.76" cy="75.81" r="3.36"/><path class="cls-9" d="M498.5,148.68s-4.48,7.36,2,16a2.4,2.4,0,0,1-.35,3.22l-.33.29a2.39,2.39,0,0,1-3,.19c-3.3-2.28-11.75-7.3-22.17-7.3C473.07,159.94,490.26,156.71,498.5,148.68Z"/><g id="Wheel"><circle class="cls-17" cx="423.72" cy="157.01" r="41.25"/><circle class="cls-18" cx="423.72" cy="157.01" r="30.72"/><circle class="cls-18" cx="423.72" cy="157.01" r="11.84"/><line class="cls-19" x1="422.35" y1="156.29" x2="417.78" y2="152.25"/><polyline class="cls-20" points="423.72 136.53 423.72 133.46 431.48 133.46"/><polyline class="cls-20" points="409.24 142.53 407.07 140.36 412.56 134.87"/><polyline class="cls-20" points="403.24 157.01 400.17 157.01 400.17 149.25"/><polyline class="cls-20" points="409.24 171.49 407.07 173.66 401.58 168.17"/><polyline class="cls-20" points="423.72 177.49 423.72 180.55 415.96 180.55"/><polyline class="cls-20" points="438.2 171.49 440.37 173.66 434.88 179.14"/><polyline class="cls-20" points="444.2 157.01 447.26 157.01 447.26 164.77"/><polyline class="cls-20" points="438.2 142.53 440.37 140.36 445.85 145.85"/></g><g id="Wheel-2" data-name="Wheel"><circle class="cls-17" cx="86.51" cy="157.01" r="41.25"/><circle class="cls-18" cx="86.51" cy="157.01" r="30.72"/><circle class="cls-18" cx="86.51" cy="157.01" r="11.84"/><line class="cls-19" x1="85.56" y1="157.01" x2="79.71" y2="158.73"/><polyline class="cls-20" points="86.51 136.53 86.51 133.46 94.28 133.46"/><polyline class="cls-20" points="72.03 142.53 69.87 140.36 75.35 134.87"/><polyline class="cls-20" points="66.04 157.01 62.97 157.01 62.97 149.25"/><polyline class="cls-20" points="72.03 171.49 69.87 173.66 64.38 168.17"/><polyline class="cls-20" points="86.51 177.49 86.51 180.55 78.75 180.55"/><polyline class="cls-20" points="100.99 171.49 103.16 173.66 97.67 179.14"/><polyline class="cls-20" points="106.99 157.01 110.06 157.01 110.06 164.77"/><polyline class="cls-20" points="100.99 142.53 103.16 140.36 108.65 145.85"/></g><path class="cls-14" d="M300.38,70.23,299,64.11A1.69,1.69,0,0,0,297,62.65l-1.44.47a2.18,2.18,0,0,0-1.18,2.62l1.58,6.17a1.65,1.65,0,0,0,2.15,1.35l1.23-.51A2.2,2.2,0,0,0,300.38,70.23Z"/><path class="cls-14" d="M295.37,53.51,298.05,57A5.23,5.23,0,0,1,296,65l-4.26,1.88a1.67,1.67,0,0,1-2.29-2l3-10.81A1.67,1.67,0,0,1,295.37,53.51Z"/></g></g></svg>